HIERARCHY
ROOT Hips
{
	OFFSET 0.000000 83.214638 0.000000
	CHANNELS 6 Xposition Yposition Zposition Xrotation Yrotation Zrotation
	JOINT Pelvis
	{
		OFFSET 0.000000 0.000000 0.000000
		CHANNELS 3 Xrotation Yrotation Zrotation
		JOINT LeftUpLeg
		{
			OFFSET 8.479700 -4.795502 -0.379100
			CHANNELS 3 Xrotation Yrotation Zrotation
			JOINT LeftLeg
			{
				OFFSET 0.024144 -32.555107 0.112900
				CHANNELS 3 Xrotation Yrotation Zrotation
				JOINT LeftFoot
				{
					OFFSET -0.024144 -32.638630 -3.012600
					CHANNELS 3 Xrotation Yrotation Zrotation
					JOINT LeftToeBase
					{
						OFFSET 0.970200 -13.225400 11.864200
						CHANNELS 3 Xrotation Yrotation Zrotation
						End Site
						{
							OFFSET 0.000000 12.319262 0.000000
						}
					}
					JOINT LFootTongue
					{
						OFFSET 1.142400 -1.059800 6.665200
						CHANNELS 3 Xrotation Yrotation Zrotation
						End Site
						{
							OFFSET 0.000000 12.319262 0.000000
						}
					}
				}
				JOINT LeftPantLeg
				{
					OFFSET 0.918482 -16.533964 -2.284700
					CHANNELS 3 Xrotation Yrotation Zrotation
					End Site
					{
						OFFSET 0.350399 24.744368 0.000000
					}
				}
			}
		}
		JOINT RightUpLeg
		{
			OFFSET -8.479700 -4.795502 -0.379100
			CHANNELS 3 Xrotation Yrotation Zrotation
			JOINT RightLeg
			{
				OFFSET -0.023144 -32.555092 0.112900
				CHANNELS 3 Xrotation Yrotation Zrotation
				JOINT RightFoot
				{
					OFFSET 0.023144 -32.638641 -3.012700
					CHANNELS 3 Xrotation Yrotation Zrotation
					JOINT RightToeBase
					{
						OFFSET -0.970200 -13.225400 11.864200
						CHANNELS 3 Xrotation Yrotation Zrotation
						End Site
						{
							OFFSET 0.000000 12.319244 0.000000
						}
					}
					JOINT RFootTongue
					{
						OFFSET -1.142200 -1.059800 6.665200
						CHANNELS 3 Xrotation Yrotation Zrotation
						End Site
						{
							OFFSET 0.000000 12.319243 0.000000
						}
					}
				}
				JOINT RightPantLeg
				{
					OFFSET -0.919482 -16.533978 -2.284800
					CHANNELS 3 Xrotation Yrotation Zrotation
					End Site
					{
						OFFSET -0.350400 24.744419 0.000000
					}
				}
			}
		}
	}
	JOINT Spine
	{
		OFFSET 0.000000 7.722000 1.166200
		CHANNELS 3 Xrotation Yrotation Zrotation
		JOINT Spine1
		{
			OFFSET 0.000000 12.024101 0.248800
			CHANNELS 3 Xrotation Yrotation Zrotation
			JOINT Spine2
			{
				OFFSET 0.000000 11.502998 -0.491200
				CHANNELS 3 Xrotation Yrotation Zrotation
				JOINT Neck
				{
					OFFSET 0.000000 18.430702 -3.123100
					CHANNELS 3 Xrotation Yrotation Zrotation
					JOINT Head
					{
						OFFSET 0.000000 9.051102 1.034000
						CHANNELS 3 Xrotation Yrotation Zrotation
						JOINT HairB
						{
							OFFSET 0.208400 24.786102 24.822300
							CHANNELS 3 Xrotation Yrotation Zrotation
							End Site
							{
								OFFSET 0.000000 32.263779 0.000000
							}
						}
						JOINT HairA
						{
							OFFSET -7.081100 24.428299 23.196600
							CHANNELS 3 Xrotation Yrotation Zrotation
							End Site
							{
								OFFSET 0.000000 32.263779 0.000000
							}
						}
						JOINT Hat
						{
							OFFSET 16.728800 15.048294 -15.439601
							CHANNELS 3 Xrotation Yrotation Zrotation
							End Site
							{
								OFFSET 0.000000 32.263779 0.000000
							}
						}
					}
				}
				JOINT LeftShoulder
				{
					OFFSET 6.197800 13.665199 -4.064700
					CHANNELS 3 Xrotation Yrotation Zrotation
					JOINT LeftArm
					{
						OFFSET 7.778100 -0.187103 -1.709300
						CHANNELS 3 Xrotation Yrotation Zrotation
						JOINT LeftForeArm
						{
							OFFSET 22.049376 0.000000 0.000000
							CHANNELS 3 Xrotation Yrotation Zrotation
							JOINT LeftHand
							{
								OFFSET 23.009392 0.000000 0.000000
								CHANNELS 3 Xrotation Yrotation Zrotation
								JOINT LeftHandThumb1
								{
									OFFSET 3.507191 -2.063065 3.133727
									CHANNELS 3 Xrotation Yrotation Zrotation
									JOINT LeftHandThumb2
									{
										OFFSET 3.101337 -1.790558 1.790558
										CHANNELS 3 Xrotation Yrotation Zrotation
										JOINT LeftHandThumb3
										{
											OFFSET 3.058640 -1.765907 1.765906
											CHANNELS 3 Xrotation Yrotation Zrotation
											End Site
											{
												OFFSET -0.415260 3.926476 -0.049563
											}
										}
									}
								}
								JOINT LeftHandIndex1
								{
									OFFSET 11.334419 -0.901459 3.706815
									CHANNELS 3 Xrotation Yrotation Zrotation
									JOINT LeftHandIndex2
									{
										OFFSET 3.283112 0.000000 0.000000
										CHANNELS 3 Xrotation Yrotation Zrotation
										JOINT LeftHandIndex3
										{
											OFFSET 3.323853 0.000000 0.000000
											CHANNELS 3 Xrotation Yrotation Zrotation
											End Site
											{
												OFFSET -1.135597 3.097809 0.402452
											}
										}
									}
								}
								JOINT LeftHandMiddle1
								{
									OFFSET 11.335861 0.000000 0.000000
									CHANNELS 3 Xrotation Yrotation Zrotation
									JOINT LeftHandMiddle2
									{
										OFFSET 3.410492 0.000000 0.000000
										CHANNELS 3 Xrotation Yrotation Zrotation
										JOINT LeftHandMiddle3
										{
											OFFSET 3.312172 0.000000 0.000000
											CHANNELS 3 Xrotation Yrotation Zrotation
											End Site
											{
												OFFSET -1.150200 3.080154 0.400270
											}
										}
									}
								}
								JOINT LeftHandRing1
								{
									OFFSET 11.514786 -0.013176 -3.003090
									CHANNELS 3 Xrotation Yrotation Zrotation
									JOINT LeftHandRing2
									{
										OFFSET 3.053307 0.000000 0.000000
										CHANNELS 3 Xrotation Yrotation Zrotation
										JOINT LeftHandRing3
										{
											OFFSET 3.295807 0.000000 0.000000
											CHANNELS 3 Xrotation Yrotation Zrotation
											End Site
											{
												OFFSET -1.281006 3.013344 0.375733
											}
										}
									}
								}
								JOINT LeftHandPinky1
								{
									OFFSET 10.518692 -0.960396 -5.730441
									CHANNELS 3 Xrotation Yrotation Zrotation
									JOINT LeftHandPinky2
									{
										OFFSET 2.861649 0.000000 0.000000
										CHANNELS 3 Xrotation Yrotation Zrotation
										JOINT LeftHandPinky3
										{
											OFFSET 2.863380 0.000000 0.000000
											CHANNELS 3 Xrotation Yrotation Zrotation
											End Site
											{
												OFFSET -0.843597 2.711159 0.369971
											}
										}
									}
								}
							}
							JOINT LSleeve
							{
								OFFSET 6.676277 -0.344902 -1.011730
								CHANNELS 3 Xrotation Yrotation Zrotation
								End Site
								{
									OFFSET 0.000000 14.885353 0.000000
								}
							}
						}
					}
				}
				JOINT RightShoulder
				{
					OFFSET -6.197800 13.665199 -4.064700
					CHANNELS 3 Xrotation Yrotation Zrotation
					JOINT RightArm
					{
						OFFSET -7.778100 -0.187103 -1.709300
						CHANNELS 3 Xrotation Yrotation Zrotation
						JOINT RightForeArm
						{
							OFFSET -22.049376 0.000000 0.000000
							CHANNELS 3 Xrotation Yrotation Zrotation
							JOINT RightHand
							{
								OFFSET -23.009392 0.000000 0.000000
								CHANNELS 3 Xrotation Yrotation Zrotation
								JOINT RightHandThumb1
								{
									OFFSET -3.507191 -2.063065 3.133727
									CHANNELS 3 Xrotation Yrotation Zrotation
									JOINT RightHandThumb2
									{
										OFFSET -3.101337 -1.790558 1.790558
										CHANNELS 3 Xrotation Yrotation Zrotation
										JOINT RightHandThumb3
										{
											OFFSET -3.058640 -1.765907 1.765906
											CHANNELS 3 Xrotation Yrotation Zrotation
											End Site
											{
												OFFSET 0.415260 3.926476 -0.049563
											}
										}
									}
								}
								JOINT RightHandIndex1
								{
									OFFSET -11.334419 -0.901459 3.706815
									CHANNELS 3 Xrotation Yrotation Zrotation
									JOINT RightHandIndex2
									{
										OFFSET -3.283112 0.000000 0.000000
										CHANNELS 3 Xrotation Yrotation Zrotation
										JOINT RightHandIndex3
										{
											OFFSET -3.323853 0.000000 0.000000
											CHANNELS 3 Xrotation Yrotation Zrotation
											End Site
											{
												OFFSET 1.135597 3.097809 0.402452
											}
										}
									}
								}
								JOINT RightHandMiddle1
								{
									OFFSET -11.335861 0.000000 0.000000
									CHANNELS 3 Xrotation Yrotation Zrotation
									JOINT RightHandMiddle2
									{
										OFFSET -3.410492 0.000000 0.000000
										CHANNELS 3 Xrotation Yrotation Zrotation
										JOINT RightHandMiddle3
										{
											OFFSET -3.312172 0.000000 0.000000
											CHANNELS 3 Xrotation Yrotation Zrotation
											End Site
											{
												OFFSET 1.150200 3.080154 0.400270
											}
										}
									}
								}
								JOINT RightHandRing1
								{
									OFFSET -11.514786 -0.013176 -3.003090
									CHANNELS 3 Xrotation Yrotation Zrotation
									JOINT RightHandRing2
									{
										OFFSET -3.053307 0.000000 0.000000
										CHANNELS 3 Xrotation Yrotation Zrotation
										JOINT RightHandRing3
										{
											OFFSET -3.295807 0.000000 0.000000
											CHANNELS 3 Xrotation Yrotation Zrotation
											End Site
											{
												OFFSET 1.281006 3.013344 0.375733
											}
										}
									}
								}
								JOINT RightHandPinky1
								{
									OFFSET -10.518692 -0.960396 -5.730441
									CHANNELS 3 Xrotation Yrotation Zrotation
									JOINT RightHandPinky2
									{
										OFFSET -2.861649 0.000000 0.000000
										CHANNELS 3 Xrotation Yrotation Zrotation
										JOINT RightHandPinky3
										{
											OFFSET -2.863380 0.000000 0.000000
											CHANNELS 3 Xrotation Yrotation Zrotation
											End Site
											{
												OFFSET 0.843597 2.711159 0.369971
											}
										}
									}
								}
							}
							JOINT RSleeve
							{
								OFFSET -6.676277 -0.344902 -1.011730
								CHANNELS 3 Xrotation Yrotation Zrotation
								End Site
								{
									OFFSET 0.000000 14.885353 0.000000
								}
							}
						}
					}
				}
				JOINT Backpack
				{
					OFFSET 0.000000 -2.471497 36.677502
					CHANNELS 3 Xrotation Yrotation Zrotation
					End Site
					{
						OFFSET 0.000000 20.427315 0.000000
					}
				}
				JOINT Hood
				{
					OFFSET 0.000000 18.754097 -10.431000
					CHANNELS 3 Xrotation Yrotation Zrotation
					JOINT Hood1
					{
						OFFSET 0.000000 -5.011002 -7.685901
						CHANNELS 3 Xrotation Yrotation Zrotation
						End Site
						{
							OFFSET 0.000000 9.175140 0.000000
						}
					}
				}
				JOINT LHoodieString
				{
					OFFSET 5.250500 16.397697 3.089900
					CHANNELS 3 Xrotation Yrotation Zrotation
					JOINT LHoodieString1
					{
						OFFSET 0.257700 -6.364304 3.694600
						CHANNELS 3 Xrotation Yrotation Zrotation
						JOINT LHoodieString2
						{
							OFFSET 0.000000 -9.643799 2.679100
							CHANNELS 3 Xrotation Yrotation Zrotation
							End Site
							{
								OFFSET 0.000000 10.009018 0.000000
							}
						}
					}
				}
				JOINT RHoodieString
				{
					OFFSET -5.250500 16.397697 3.089900
					CHANNELS 3 Xrotation Yrotation Zrotation
					JOINT RHoodieString1
					{
						OFFSET -0.257700 -6.364304 3.694600
						CHANNELS 3 Xrotation Yrotation Zrotation
						JOINT RHoodieString2
						{
							OFFSET 0.000000 -9.643799 2.679100
							CHANNELS 3 Xrotation Yrotation Zrotation
							End Site
							{
								OFFSET 0.000000 10.009018 0.000000
							}
						}
					}
				}
			}
			JOINT LBackpack_Strap
			{
				OFFSET 15.223200 -7.719803 -6.610900
				CHANNELS 3 Xrotation Yrotation Zrotation
				End Site
				{
					OFFSET 0.000000 16.040596 0.000000
				}
			}
			JOINT RBackpack_Strap
			{
				OFFSET -15.223000 -7.719803 -6.610900
				CHANNELS 3 Xrotation Yrotation Zrotation
				End Site
				{
					OFFSET 0.000000 16.040596 0.000000
				}
			}
		}
	}
	JOINT BoyFacialAnim_Joint
	{
		OFFSET 1.000000 -82.208099 -1.550900
		CHANNELS 3 Xrotation Yrotation Zrotation
		End Site
		{
			OFFSET 0.000000 30.012791 0.000000
		}
	}
}
MOTION
Frames: 5
Frame Time: 0.033333
-0.111289 82.529129 0.476785 -4.056191 6.163074 -1.770214 -0.000000 -0.000000 0.000000 -2.723325 10.918813 10.710329 9.778209 -6.614958 0.228496 -4.247485 0.656825 -6.983622 -0.000000 0.000000 0.000000 -0.000000 0.000000 0.000000 -0.000000 -0.000000 -0.000000 -0.917443 -5.950620 1.782921 8.508449 3.375320 -0.628120 -3.345367 0.080652 0.308209 -0.000000 0.000000 -0.000000 -0.000000 0.000000 -0.000000 -0.000000 -0.000000 -0.000000 4.903450 -0.349196 1.226947 5.814410 -0.121265 1.891506 -4.300225 -0.608023 -1.115061 1.349176 -1.122404 0.966674 4.180455 -0.441329 -1.260370 0.000001 0.000000 0.000000 0.000001 0.000000 0.000000 0.000001 0.000000 0.000000 1.687483 -7.781252 -3.494998 -0.672287 -2.004150 -76.954164 6.346021 -10.905147 1.751695 -0.215852 -0.744257 3.407805 -3.779741 8.457874 12.348764 7.439541 11.617310 -1.292641 0.000001 -0.000001 0.000002 2.384576 3.620161 -6.815694 -0.007827 0.227208 -17.103477 -0.000000 -0.000000 -0.000000 -1.935783 5.644690 -11.386976 0.112460 0.632662 -24.767786 0.000001 -0.000000 -0.000003 -4.873117 10.020113 -7.875464 -0.031553 0.293305 -30.086205 0.000001 -0.000000 -0.000002 -6.437531 11.282632 -19.770927 0.029279 0.211161 -30.857651 -0.000001 -0.000001 -0.000002 0.000001 -0.000001 0.000000 2.069732 10.207990 4.096301 1.439769 3.704605 75.273910 15.720237 15.338359 -4.555469 -4.669805 -0.553078 -0.689272 -0.464229 -8.992537 -6.084864 7.444317 -11.614478 1.291701 -0.000001 -0.000000 0.000001 2.415132 -3.647878 8.343608 -0.045902 -0.188515 18.630256 -0.000003 -0.000000 0.000002 -1.985504 -5.700680 13.541328 0.094753 -0.637370 26.924145 0.000001 -0.000001 0.000003 -4.982039 -10.062144 10.706133 -0.023917 -0.331178 32.937378 -0.000001 0.000000 0.000000 -6.468517 -11.288228 23.243655 0.067367 -0.216419 34.333264 -0.000000 0.000000 0.000002 0.000002 -0.000000 0.000000 -0.000000 -0.000000 -0.000000 -0.000000 -0.000000 -0.000000 -0.000000 -0.000000 -0.000000 -0.000000 -0.000000 -0.000000 -0.000000 -0.000000 -0.000000 -0.000000 -0.000000 -0.000000 -0.000000 -0.000000 -0.000000 -0.000000 -0.000000 -0.000000 -0.000000 -0.000000 -0.000000 -0.000000 -0.000000 -0.000000 -0.000000 -0.000000 -0.000000 -0.000000 -0.000000 0.000000 
0.137122 82.526917 0.596848 -3.998270 5.940963 -1.765470 0.000000 -0.000001 0.000000 -2.673196 10.903551 10.478477 10.033008 -6.425852 0.250663 -4.550637 0.739855 -6.800208 -0.000000 -0.000000 -0.000000 -0.000000 -0.000000 0.000000 -0.000001 -0.000002 -0.000001 -0.911791 -6.005266 1.563282 8.542012 3.530566 -0.644851 -3.478648 0.131205 0.528662 0.000000 0.000000 0.000000 0.000000 0.000000 0.000000 -0.000000 -0.000000 0.000000 4.951532 -0.315050 1.116651 5.781779 -0.096560 1.938245 -4.313160 -0.588010 -1.060006 1.414385 -1.142503 0.892457 4.073078 -0.493675 -1.181396 -0.000000 0.000000 -0.000000 -0.000000 0.000000 -0.000000 -0.000000 0.000000 -0.000000 1.724795 -7.669482 -3.420763 -0.662882 -1.885793 -77.087065 6.401421 -10.865462 1.699310 -0.197649 -0.883598 3.453708 -3.774815 8.495998 12.356143 7.405394 11.551563 -1.297694 0.000001 0.000001 0.000001 2.389381 3.882894 -6.748004 -0.007888 0.227167 -17.044561 -0.000001 -0.000001 -0.000004 -1.921316 5.820183 -11.342828 0.112325 0.632557 -24.739398 0.000001 -0.000001 0.000000 -4.854702 10.144559 -7.870523 -0.031526 0.293372 -30.088530 -0.000002 -0.000000 -0.000002 -6.388998 11.351055 -19.829352 0.029394 0.211335 -30.898922 -0.000000 0.000000 -0.000002 0.000000 -0.000000 0.000001 2.142883 10.163871 3.771633 1.864194 4.540161 75.380727 15.819068 16.557895 -5.748704 -5.223171 -0.785542 -0.471495 -0.464251 -8.992502 -6.084846 7.444310 -11.614500 1.291627 -0.000002 0.000000 -0.000001 2.415144 -3.647868 8.343625 -0.045893 -0.188528 18.630215 0.000001 0.000000 0.000004 -1.985503 -5.700718 13.541296 0.094767 -0.637313 26.924169 -0.000001 0.000001 0.000002 -4.982004 -10.062152 10.706080 -0.023990 -0.331198 32.937447 -0.000000 -0.000000 0.000002 -6.468501 -11.288275 23.243643 0.067362 -0.216360 34.333285 -0.000001 -0.000000 0.000000 0.000002 0.000001 -0.000001 0.000000 -0.000000 -0.000000 0.000000 -0.000000 -0.000000 0.000000 -0.000000 -0.000000 0.000000 -0.000000 -0.000000 0.000000 -0.000000 -0.000000 -0.000000 -0.000000 0.000000 0.000000 -0.000000 -0.000000 0.000000 -0.000000 -0.000000 -0.000000 -0.000000 0.000000 -0.000000 0.000000 -0.000000 -0.000000 0.000000 -0.000000 0.000000 -0.000001 0.000000 
0.435079 82.520607 0.732333 -3.834273 5.755585 -1.798985 0.000000 0.000000 -0.000000 -2.783763 10.785797 10.224607 10.436098 -6.164865 0.304145 -4.938254 0.809943 -6.593720 0.000000 -0.000000 -0.000000 0.000000 -0.000000 -0.000000 -0.000000 0.000000 -0.000000 -0.990320 -6.084904 1.327022 8.559302 3.681578 -0.644721 -3.615520 0.136379 0.751113 0.000000 -0.000000 -0.000000 0.000000 -0.000000 -0.000000 -0.000000 0.000000 -0.000000 4.885568 -0.292845 1.101754 5.773520 -0.086470 1.956409 -4.266374 -0.578597 -1.024959 1.248252 -1.139852 0.783734 4.059110 -0.537783 -1.058056 0.000001 -0.000000 -0.000000 0.000001 -0.000000 -0.000000 0.000001 -0.000000 -0.000000 1.729246 -7.546676 -3.461389 -0.757594 -1.736089 -77.094428 6.408679 -10.790984 1.593592 -0.167473 -1.066968 3.625556 -3.796074 8.487387 12.340891 7.398127 11.563325 -1.274859 0.000000 -0.000001 -0.000001 2.351236 4.071038 -6.519808 -0.008093 0.227045 -16.881038 0.000001 0.000000 -0.000000 -1.918972 6.005000 -11.213858 0.111907 0.632221 -24.654454 0.000002 -0.000001 0.000002 -4.826805 10.359590 -7.821122 -0.031598 0.293201 -30.066284 0.000000 -0.000001 -0.000002 -6.258528 11.579894 -19.879146 0.029444 0.211501 -30.938797 -0.000001 0.000000 0.000001 0.000001 0.000000 0.000001 2.216154 10.108445 3.445648 1.946936 5.274056 75.485844 15.732687 17.486966 -6.817754 -5.609688 -0.763118 -0.193248 -0.464220 -8.992501 -6.084806 7.444298 -11.614525 1.291665 0.000005 -0.000001 -0.000003 2.415643 -3.659048 8.348744 -0.045886 -0.188531 18.630224 -0.000006 0.000002 0.000002 -1.985500 -5.700723 13.541307 0.094767 -0.637337 26.924286 0.000002 0.000000 0.000002 -4.982022 -10.062166 10.706088 -0.023974 -0.331164 32.937430 0.000001 0.000000 0.000004 -6.468525 -11.288272 23.243713 0.067383 -0.216386 34.333220 0.000001 0.000000 -0.000001 -0.000000 -0.000001 -0.000001 0.000000 0.000000 0.000000 0.000000 0.000000 0.000000 0.000000 0.000000 0.000000 0.000000 0.000000 0.000000 0.000000 0.000000 -0.000000 -0.000000 -0.000000 0.000000 0.000000 0.000000 0.000000 0.000000 0.000000 -0.000000 -0.000000 -0.000000 0.000000 0.000000 0.000000 -0.000000 0.000000 0.000000 -0.000000 0.000000 0.000000 -0.000000 
0.786305 82.512787 0.925995 -3.784788 5.520389 -1.806090 -0.000000 -0.000000 -0.000000 -2.696770 10.773351 9.926708 10.808450 -5.956333 0.333705 -5.385309 0.895844 -6.335931 0.000000 -0.000000 -0.000000 0.000000 -0.000000 -0.000000 -0.000000 -0.000000 -0.000000 -0.910547 -6.257328 1.017384 8.585023 3.996614 -0.636192 -3.810125 0.128897 1.005805 0.000000 -0.000000 -0.000000 0.000000 -0.000000 -0.000000 -0.000000 0.000000 -0.000000 4.983920 -0.239427 1.074409 5.712350 -0.048383 1.951423 -4.239035 -0.536529 -0.998757 1.035053 -1.169643 0.731513 3.988991 -0.599362 -0.933629 0.000001 0.000000 -0.000000 0.000001 0.000000 -0.000000 0.000001 0.000000 -0.000000 1.742474 -7.463576 -3.428092 -0.835862 -1.697801 -77.165879 6.400898 -10.776689 1.491288 -0.129277 -1.285906 3.831517 -3.798271 8.550270 12.336753 7.351504 11.507911 -1.250157 0.000001 -0.000001 -0.000001 2.352567 4.669974 -6.340241 -0.008197 0.226917 -16.729418 0.000001 -0.000001 -0.000000 -1.881248 6.491912 -11.072968 0.110014 0.632034 -24.560059 0.000001 0.000000 -0.000001 -4.720616 10.797051 -7.762962 -0.031608 0.292858 -30.010273 0.000001 0.000000 -0.000000 -6.002966 11.971908 -20.176254 0.029620 0.211748 -30.996587 -0.000001 -0.000000 0.000005 -0.000000 0.000001 0.000002 2.287345 10.073019 3.158587 1.882860 5.815280 75.606035 15.388607 18.282449 -7.855078 -5.765864 -0.684717 0.078521 -0.464248 -8.992548 -6.084864 7.444296 -11.614522 1.291590 0.000001 -0.000000 0.000001 2.416319 -3.675934 8.362804 -0.045916 -0.188539 18.639255 -0.000001 -0.000002 0.000001 -1.985597 -5.700800 13.551681 0.094754 -0.637385 26.928210 0.000000 0.000001 -0.000000 -4.982083 -10.062224 10.716032 -0.023998 -0.331222 32.937361 -0.000000 0.000000 0.000000 -6.477166 -11.267295 23.249597 0.067378 -0.216401 34.333209 0.000001 -0.000000 0.000000 0.000003 0.000000 -0.000001 0.000000 -0.000000 0.000000 0.000000 -0.000000 0.000000 0.000000 -0.000000 0.000000 0.000000 -0.000000 0.000000 0.000000 -0.000000 0.000000 -0.000000 -0.000000 0.000000 0.000000 -0.000000 0.000000 0.000000 -0.000000 0.000000 -0.000000 -0.000000 0.000000 0.000000 0.000000 0.000000 0.000000 0.000000 0.000000 -0.000000 -0.000000 -0.000000 
1.190549 82.499809 1.134152 -3.658314 5.265192 -1.834415 -0.000000 -0.000000 0.000000 -2.704557 10.708658 9.587049 11.275860 -5.666409 0.385064 -5.900219 0.973291 -6.050916 -0.000000 0.000001 -0.000000 -0.000000 0.000001 -0.000000 0.000000 0.000001 -0.000000 -0.899762 -6.393413 0.692858 8.597691 4.297485 -0.663127 -4.002047 0.135470 1.328221 0.000000 0.000000 -0.000000 0.000000 0.000000 -0.000000 -0.000000 0.000000 -0.000000 5.049294 -0.165094 1.077796 5.635982 0.006357 1.930385 -4.195269 -0.475768 -0.977564 0.789593 -1.233238 0.756317 3.683126 -0.668765 -0.846322 0.000001 0.000000 -0.000000 0.000001 0.000000 -0.000000 0.000001 0.000000 -0.000000 1.750905 -7.379797 -3.334046 -0.862827 -1.895272 -77.270531 6.560716 -10.837388 1.406987 -0.124181 -1.218999 3.952210 -3.794799 8.652378 12.336505 7.306001 11.471100 -1.209885 0.000001 -0.000002 -0.000004 2.360395 4.617957 -6.425828 -0.008211 0.226937 -16.754196 -0.000003 -0.000001 -0.000004 -1.858912 6.439378 -11.153982 0.108303 0.632261 -24.561162 0.000001 -0.000001 0.000002 -4.611463 10.718673 -7.884702 -0.031601 0.292452 -29.956349 -0.000001 -0.000000 0.000001 -5.791011 11.904307 -20.713266 0.029686 0.211770 -31.007099 -0.000001 0.000000 -0.000000 0.000000 0.000001 0.000001 2.304801 10.044640 2.899947 1.603040 6.204356 75.699431 15.267884 18.759736 -8.862069 -5.748492 -0.400152 0.494873 -0.464249 -8.992526 -6.084848 7.444325 -11.614512 1.291635 0.000000 0.000000 0.000001 2.422763 -3.711156 8.382742 -0.045914 -0.188568 18.651860 -0.000001 0.000001 0.000004 -1.985650 -5.700898 13.566058 0.094825 -0.637398 26.938910 0.000003 -0.000001 0.000003 -4.981437 -10.052724 10.732023 -0.023917 -0.331299 32.946695 0.000002 0.000000 0.000002 -6.491550 -11.230746 23.264700 0.067396 -0.216379 34.337369 -0.000003 -0.000002 -0.000000 0.000003 -0.000001 0.000000 -0.000000 0.000000 -0.000000 -0.000000 0.000000 -0.000000 -0.000000 0.000000 -0.000000 -0.000000 0.000000 -0.000000 -0.000000 0.000000 -0.000000 0.000000 -0.000000 -0.000000 -0.000000 0.000000 -0.000000 -0.000000 0.000000 -0.000000 0.000000 -0.000000 -0.000000 0.000001 0.000000 -0.000000 0.000001 0.000000 -0.000000 -0.000000 -0.000000 0.000000 
